<svg preserveAspectRatio="none" width="100%" height="100%" overflow="visible" style="display: block;" viewBox="0 0 148 44" fill="none" xmlns="http://www.w3.org/2000/svg">
<g id="Subtract" style="mix-blend-mode:multiply">
<mask id="path-1-inside-1_0_41" fill="white">
<path d="M128 0C139.046 0 148 8.95431 148 20V24C148 35.0457 139.046 44 128 44H20C8.95431 44 3.2215e-07 35.0457 0 24V20C0 8.95431 8.95431 2.43769e-07 20 0H128Z"/>
</mask>
<path d="M128 0C139.046 0 148 8.95431 148 20V24C148 35.0457 139.046 44 128 44H20C8.95431 44 3.2215e-07 35.0457 0 24V20C0 8.95431 8.95431 2.43769e-07 20 0H128Z" fill="var(--fill-0, #FFE0B8)"/>
<path d="M148 20H149V20H148ZM20 44V45V45V44ZM0 24H-1V24H0ZM20 0V-1V-1V0ZM128 0V1C138.493 1 147 9.50659 147 20H148H149C149 8.40202 139.598 -1 128 -1V0ZM148 20H147V24H148H149V20H148ZM148 24H147C147 34.4934 138.493 43 128 43V44V45C139.598 45 149 35.598 149 24H148ZM128 44V43H20V44V45H128V44ZM20 44V43C9.50659 43 1 34.4934 1 24H0H-1C-1 35.598 8.40203 45 20 45V44ZM0 24H1V20H0H-1V24H0ZM0 20H1C1 9.50659 9.50659 1 20 1V0V-1C8.40202 -1 -1 8.40202 -1 20H0ZM20 0V1H128V0V-1H20V0Z" fill="var(--stroke-0, #322116)" mask="url(#path-1-inside-1_0_41)"/>
</g>
</svg>
