<svg preserveAspectRatio="none" width="100%" height="100%" overflow="visible" style="display: block;" viewBox="0 0 29.8784 29.8784" fill="none" xmlns="http://www.w3.org/2000/svg">
<g id="Frame">
<path id="Vector" d="M22.4765 6.81579C22.7515 7.09172 22.7752 7.5232 22.545 7.82462L22.4765 7.90371L21.233 9.14718C22.183 10.0334 22.9403 11.1059 23.4576 12.2978C23.9748 13.4897 24.2409 14.7753 24.2393 16.0746C24.2393 21.3121 19.9939 25.5574 14.7564 25.5574C9.5189 25.5574 5.27265 21.3121 5.27265 16.0746C5.27265 10.8371 9.5189 6.59082 14.7564 6.59082C16.7038 6.59082 18.5141 7.17784 20.0203 8.18492L21.3894 6.81579C21.5336 6.6717 21.7291 6.59076 21.9329 6.59076C22.1368 6.59076 22.3323 6.6717 22.4765 6.81579ZM14.7564 10.6912C14.5689 10.691 14.3879 10.7593 14.2472 10.8833C14.1066 11.0073 14.0161 11.1783 13.9927 11.3643L13.9875 11.461V16.0746L13.9927 16.1712C14.0156 16.3576 14.1058 16.5291 14.2464 16.6535C14.387 16.7779 14.5682 16.8466 14.756 16.8466C14.9437 16.8466 15.1249 16.7779 15.2655 16.6535C15.4061 16.5291 15.4963 16.3576 15.5192 16.1712L15.5253 16.0746V11.461L15.5192 11.3643C15.4956 11.1786 15.4052 11.0079 15.2648 10.8841C15.1243 10.7604 14.9436 10.6921 14.7564 10.6921V10.6912ZM18.3444 3.5151C18.5399 3.51521 18.728 3.58976 18.8705 3.72359C19.013 3.85743 19.0991 4.04051 19.1114 4.2356C19.1238 4.43069 19.0613 4.62315 18.9368 4.77384C18.8123 4.92453 18.635 5.02213 18.4411 5.04681L18.3444 5.05296H11.1675C10.972 5.05286 10.7839 4.97831 10.6414 4.84447C10.4989 4.71063 10.4128 4.52755 10.4005 4.33246C10.3882 4.13737 10.4506 3.94491 10.5751 3.79423C10.6997 3.64354 10.8769 3.54593 11.0708 3.52126L11.1675 3.5151H18.3444Z" fill="var(--fill-0, black)" fill-opacity="0.8"/>
</g>
</svg>
