<svg preserveAspectRatio="none" width="100%" height="100%" overflow="visible" style="display: block;" viewBox="0 0 16.7518 16.0803" fill="none" xmlns="http://www.w3.org/2000/svg">
<path id="Vector" d="M10.0154 2.00883C7.41369 2.00883 5.29549 4.12319 5.29549 6.72489C5.29549 9.32275 7.41177 11.439 10.0154 11.439C12.619 11.439 14.7372 9.32467 14.7372 6.72489C14.7391 4.12319 12.619 2.00883 10.0154 2.00883ZM10.0154 13.4498C8.35575 13.4498 6.83809 12.8454 5.66196 11.8477L4.69303 12.8166L6.2836 14.4072L4.85996 15.8289L3.26939 14.2384L1.42364 16.0803L0 14.6585L1.84383 12.8166L0.159249 11.134L1.58289 9.71224L3.26747 11.3949L4.33808 10.3262C3.67231 9.28246 3.2809 8.04877 3.2809 6.72489C3.2809 3.01613 6.30087 0 10.0154 0C13.7299 0 16.7518 3.01613 16.7518 6.72489C16.7518 10.4317 13.7299 13.4498 10.0154 13.4498Z" fill="var(--fill-0, #322116)"/>
</svg>
