<svg preserveAspectRatio="none" width="100%" height="100%" overflow="visible" style="display: block;" viewBox="0 0 16.7499 16.7518" fill="none" xmlns="http://www.w3.org/2000/svg">
<path id="Vector" d="M6.94938 5.22834C4.34768 5.22834 2.23332 7.31776 2.23332 9.88876C2.23332 12.4578 4.3496 14.5473 6.94938 14.5473C9.54916 14.5473 11.6674 12.4559 11.6674 9.88876C11.6654 7.31776 9.54916 5.22834 6.94938 5.22834ZM16.7499 6.41023H14.5166V3.9083L12.5557 5.84615C13.3961 6.98007 13.8988 8.37494 13.8988 9.88684C13.8988 13.6723 10.7829 16.7518 6.94938 16.7518C3.11782 16.7518 0 13.6723 0 9.88684C0 6.10133 3.11782 3.01997 6.94938 3.01997C8.44785 3.01997 9.8312 3.49579 10.967 4.29395L13.0795 2.20646H10.236V0H16.7499V6.41023Z" fill="var(--fill-0, #322116)"/>
</svg>
