<svg preserveAspectRatio="none" width="100%" height="100%" overflow="visible" style="display: block;" viewBox="0 0 28 27" fill="none" xmlns="http://www.w3.org/2000/svg">
<path id="Subtract" d="M14 0C21.732 0 28 6.04416 28 13.5C28 20.9558 21.732 27 14 27C6.26801 27 0 20.9558 0 13.5C0 6.04416 6.26801 0 14 0ZM13.5908 17.6426C13.2375 17.6426 12.9511 17.7419 12.7324 17.9727C12.4802 18.1869 12.3623 18.4674 12.3623 18.8135C12.3624 19.143 12.4801 19.4236 12.7324 19.6543C12.9511 19.885 13.2375 20 13.5908 20C13.9273 20 14.23 19.8842 14.4824 19.6699C14.7179 19.4392 14.8359 19.1595 14.8359 18.8135C14.8359 18.4673 14.718 18.1869 14.4824 17.9727C14.2469 17.7419 13.9441 17.6426 13.5908 17.6426ZM13.877 8C12.6487 8 11.6725 8.34591 10.9658 9.05469C10.2424 9.74691 9.88974 10.6866 9.88965 11.8896H11.6729C11.6729 11.1646 11.8242 10.5879 12.127 10.1924C12.4635 9.73084 13.0192 9.5 13.7764 9.5C14.3818 9.50007 14.853 9.66463 15.1895 9.99414C15.5091 10.3237 15.6776 10.769 15.6777 11.3457C15.6777 11.7743 15.5255 12.1707 15.2227 12.5498L14.9365 12.8623C13.8935 13.7687 13.2542 14.4447 13.0186 14.9062C12.7998 15.3348 12.6992 15.8628 12.6992 16.4727V16.7529H14.499V16.4727C14.499 16.0606 14.5835 15.6978 14.7686 15.3682C14.92 15.0715 15.1561 14.7911 15.459 14.5273C16.266 13.8521 16.737 13.4237 16.8887 13.2422C17.2925 12.7147 17.5117 12.0382 17.5117 11.2305C17.5117 10.2417 17.1746 9.45088 16.5186 8.87402C15.8455 8.28062 14.9706 8 13.877 8Z" fill="var(--fill-0, #322318)" fill-opacity="0.8"/>
</svg>
