<svg preserveAspectRatio="none" width="100%" height="100%" overflow="visible" style="display: block;" viewBox="0 0 27 27" fill="none" xmlns="http://www.w3.org/2000/svg">
<path id="Subtract" d="M13.5 0C20.9558 0 27 6.04416 27 13.5C27 20.9558 20.9558 27 13.5 27C6.04416 27 0 20.9558 0 13.5C0 6.04416 6.04416 0 13.5 0ZM13.3994 17.6426C13.075 17.6426 12.8122 17.7419 12.6113 17.9727C12.3796 18.1869 12.2715 18.4674 12.2715 18.8135C12.2715 19.143 12.3796 19.4236 12.6113 19.6543C12.8122 19.8849 13.0751 20 13.3994 20C13.7085 20 13.987 19.8842 14.2188 19.6699C14.4348 19.4393 14.5429 19.1593 14.543 18.8135C14.543 18.4674 14.435 18.1869 14.2188 17.9727C14.0024 17.7419 13.7239 17.6426 13.3994 17.6426ZM13.6621 8C12.5343 8.00003 11.6382 8.34612 10.9893 9.05469C10.3249 9.74691 10.0001 10.6866 10 11.8896H11.6377C11.6378 11.1646 11.7776 10.5879 12.0557 10.1924C12.3647 9.731 12.8742 9.50004 13.5693 9.5C14.1254 9.5 14.5582 9.66472 14.8672 9.99414C15.1607 10.3237 15.3153 10.769 15.3154 11.3457C15.3154 11.7743 15.1766 12.1707 14.8984 12.5498L14.6357 12.8623C13.6778 13.7688 13.0904 14.4447 12.874 14.9062C12.6731 15.3348 12.5811 15.8628 12.5811 16.4727V16.7529H14.2344V16.4727C14.2344 16.0606 14.3115 15.6978 14.4814 15.3682C14.6205 15.0715 14.8371 14.7911 15.1152 14.5273C15.8567 13.8517 16.2896 13.4235 16.4287 13.2422C16.7996 12.7147 17 12.0382 17 11.2305C16.9999 10.2416 16.6905 9.45089 16.0879 8.87402C15.4698 8.28063 14.6665 8 13.6621 8Z" fill="var(--fill-0, #322318)" fill-opacity="0.8"/>
</svg>
