<svg preserveAspectRatio="none" width="100%" height="100%" overflow="visible" style="display: block;" viewBox="0 0 9 15" fill="none" xmlns="http://www.w3.org/2000/svg">
<path id="?" d="M4.70861 0C6 0 7.03311 0.350275 7.82781 1.09203C8.60265 1.81319 9 2.8022 9 4.03846C9 5.04808 8.74172 5.89286 8.2649 6.5522C8.08609 6.77885 7.5298 7.31456 6.57616 8.15934C6.21854 8.48901 5.9404 8.83929 5.76159 9.21016C5.54305 9.62225 5.44371 10.0755 5.44371 10.5907V10.9409H3.31788V10.5907C3.31788 9.8283 3.43709 9.16896 3.69536 8.63324C3.97351 8.05632 4.72848 7.21154 5.96027 6.0783L6.29801 5.68681C6.65563 5.21291 6.83444 4.71841 6.83444 4.18269C6.83444 3.46154 6.63576 2.90522 6.25828 2.49313C5.86093 2.08104 5.30464 1.875 4.5894 1.875C3.69536 1.875 3.03974 2.16346 2.64238 2.74038C2.28477 3.23489 2.10596 3.95604 2.10596 4.86264H0C0 3.35852 0.417218 2.18407 1.27152 1.31868C2.10596 0.432693 3.25828 0 4.70861 0ZM4.37086 12.0536C4.78808 12.0536 5.1457 12.1772 5.42384 12.4657C5.70199 12.7335 5.84106 13.0838 5.84106 13.5165C5.84106 13.9492 5.70199 14.2994 5.42384 14.5879C5.12583 14.8558 4.76821 15 4.37086 15C3.95364 15 3.61589 14.8558 3.35762 14.5673C3.0596 14.2788 2.92053 13.9286 2.92053 13.5165C2.92053 13.0838 3.0596 12.7335 3.35762 12.4657C3.61589 12.1772 3.95364 12.0536 4.37086 12.0536Z" fill="var(--fill-0, #322318)"/>
</svg>
