<svg width="222" height="154" viewBox="0 0 222 154" fill="none" xmlns="http://www.w3.org/2000/svg">
<g clip-path="url(#clip0_1272_944)">
<path d="M3.8049 124.875C1.65625 124.875 0.179054 123.833 0 122.235H1.59358C1.85321 123.043 2.62314 123.573 3.85861 123.573C5.15675 123.573 6.07888 122.953 6.07888 122.073V122.055C6.07888 121.399 5.58648 120.941 4.39577 120.654L2.90067 120.295C1.09223 119.864 0.277534 119.073 0.277534 117.681V117.672C0.277534 116.065 1.8174 114.853 3.86756 114.853C5.89087 114.853 7.29645 115.867 7.51131 117.448H5.9804C5.77449 116.685 5.02246 116.155 3.85861 116.155C2.71267 116.155 1.87111 116.747 1.87111 117.601V117.619C1.87111 118.274 2.35456 118.687 3.49155 118.966L4.9777 119.325C6.7951 119.765 7.67246 120.555 7.67246 121.938V121.956C7.67246 123.68 5.99831 124.875 3.8049 124.875Z" fill="#EF7519"/>
<path d="M12.7397 124.875C10.9044 124.875 9.51672 123.761 9.51672 122.001V121.983C9.51672 120.259 10.788 119.262 13.0351 119.127L15.8015 118.957V118.077C15.8015 116.882 15.0763 116.236 13.635 116.236C12.4801 116.236 11.7191 116.667 11.4684 117.421L11.4595 117.448H9.90168L9.91063 117.394C10.1613 115.876 11.6296 114.853 13.6887 114.853C16.0432 114.853 17.3593 116.065 17.3593 118.077V124.704H15.8015V123.276H15.6583C15.0495 124.309 14.0378 124.875 12.7397 124.875ZM11.1103 121.965C11.1103 122.944 11.9429 123.519 13.062 123.519C14.6466 123.519 15.8015 122.477 15.8015 121.094V120.214L13.2231 120.376C11.7549 120.465 11.1103 120.986 11.1103 121.947V121.965Z" fill="#EF7519"/>
<path d="M22.5787 124.704L19.0066 115.023H20.6539L23.2949 122.998H23.4382L26.0792 115.023H27.7265L24.1544 124.704H22.5787Z" fill="#EF7519"/>
<path d="M33.3667 124.875C30.6093 124.875 28.9441 122.935 28.9441 119.9V119.891C28.9441 116.9 30.6451 114.853 33.2682 114.853C35.8914 114.853 37.4849 116.81 37.4849 119.702V120.313H30.5376C30.5824 122.315 31.6836 123.483 33.4025 123.483C34.7096 123.483 35.5153 122.863 35.775 122.279L35.8108 122.199H37.3686L37.3506 122.27C37.0194 123.582 35.6407 124.875 33.3667 124.875ZM33.2593 116.245C31.8268 116.245 30.7346 117.223 30.5645 119.064H35.9003C35.7392 117.152 34.6827 116.245 33.2593 116.245Z" fill="#EF7519"/>
<path d="M45.0589 124.704V115.023H46.6167V116.46H46.7599C47.127 115.445 48.0312 114.853 49.3383 114.853C49.6337 114.853 49.965 114.889 50.1172 114.915V116.433C49.7949 116.379 49.4995 116.343 49.1593 116.343C47.6731 116.343 46.6167 117.286 46.6167 118.705V124.704H45.0589Z" fill="#EF7519"/>
<path d="M55.7126 124.875C52.9552 124.875 51.29 122.935 51.29 119.9V119.891C51.29 116.9 52.991 114.853 55.6141 114.853C58.2373 114.853 59.8309 116.81 59.8309 119.702V120.313H52.8836C52.9283 122.315 54.0295 123.483 55.7484 123.483C57.0555 123.483 57.8613 122.863 58.1209 122.279L58.1567 122.199H59.7145L59.6966 122.27C59.3653 123.582 57.9866 124.875 55.7126 124.875ZM55.6052 116.245C54.1728 116.245 53.0805 117.223 52.9104 119.064H58.2462C58.0851 117.152 57.0287 116.245 55.6052 116.245Z" fill="#EF7519"/>
<path d="M65.5606 124.875C63.4119 124.875 61.9347 123.833 61.7557 122.235H63.3493C63.6089 123.043 64.3788 123.573 65.6143 123.573C66.9124 123.573 67.8346 122.953 67.8346 122.073V122.055C67.8346 121.399 67.3422 120.941 66.1515 120.654L64.6564 120.295C62.8479 119.864 62.0332 119.073 62.0332 117.681V117.672C62.0332 116.065 63.5731 114.853 65.6233 114.853C67.6466 114.853 69.0521 115.867 69.267 117.448H67.7361C67.5302 116.685 66.7782 116.155 65.6143 116.155C64.4684 116.155 63.6268 116.747 63.6268 117.601V117.619C63.6268 118.274 64.1103 118.687 65.2472 118.966L66.7334 119.325C68.5508 119.765 69.4282 120.555 69.4282 121.938V121.956C69.4282 123.68 67.754 124.875 65.5606 124.875Z" fill="#EF7519"/>
<path d="M75.8114 124.875C73.0629 124.875 71.3619 122.971 71.3619 119.873V119.855C71.3619 116.747 73.0629 114.853 75.8114 114.853C78.5599 114.853 80.2609 116.747 80.2609 119.855V119.873C80.2609 122.971 78.5599 124.875 75.8114 124.875ZM75.8114 123.492C77.6378 123.492 78.6673 122.154 78.6673 119.873V119.855C78.6673 117.565 77.6378 116.236 75.8114 116.236C73.9851 116.236 72.9555 117.565 72.9555 119.855V119.873C72.9555 122.154 73.9851 123.492 75.8114 123.492Z" fill="#EF7519"/>
<path d="M85.9101 124.875C83.7167 124.875 82.5886 123.582 82.5886 121.292V115.023H84.1464V120.914C84.1464 122.657 84.7731 123.492 86.3129 123.492C88.014 123.492 88.9182 122.45 88.9182 120.753V115.023H90.4759V124.704H88.9182V123.258H88.7749C88.3004 124.291 87.3246 124.875 85.9101 124.875Z" fill="#EF7519"/>
<path d="M93.3856 124.704V115.023H94.9433V116.46H95.0866C95.4536 115.445 96.3579 114.853 97.665 114.853C97.9604 114.853 98.2916 114.889 98.4438 114.915V116.433C98.1215 116.379 97.8261 116.343 97.4859 116.343C95.9998 116.343 94.9433 117.286 94.9433 118.705V124.704H93.3856Z" fill="#EF7519"/>
<path d="M104.048 124.875C101.345 124.875 99.6166 122.908 99.6166 119.837V119.819C99.6166 116.81 101.336 114.853 104.039 114.853C106.385 114.853 107.79 116.209 108.077 117.933L108.086 117.987H106.537L106.528 117.96C106.286 117.008 105.427 116.236 104.039 116.236C102.302 116.236 101.21 117.637 101.21 119.819V119.837C101.21 122.064 102.32 123.492 104.039 123.492C105.337 123.492 106.161 122.917 106.519 121.839L106.537 121.786L108.077 121.777L108.059 121.875C107.665 123.627 106.367 124.875 104.048 124.875Z" fill="#EF7519"/>
<path d="M114.299 124.875C111.542 124.875 109.876 122.935 109.876 119.9V119.891C109.876 116.9 111.577 114.853 114.201 114.853C116.824 114.853 118.417 116.81 118.417 119.702V120.313H111.47C111.515 122.315 112.616 123.483 114.335 123.483C115.642 123.483 116.448 122.863 116.707 122.279L116.743 122.199H118.301L118.283 122.27C117.952 123.582 116.573 124.875 114.299 124.875ZM114.192 116.245C112.759 116.245 111.667 117.223 111.497 119.064H116.833C116.672 117.152 115.615 116.245 114.192 116.245Z" fill="#EF7519"/>
<path d="M124.147 124.875C121.998 124.875 120.521 123.833 120.342 122.235H121.936C122.195 123.043 122.965 123.573 124.201 123.573C125.499 123.573 126.421 122.953 126.421 122.073V122.055C126.421 121.399 125.929 120.941 124.738 120.654L123.243 120.295C121.434 119.864 120.62 119.073 120.62 117.681V117.672C120.62 116.065 122.16 114.853 124.21 114.853C126.233 114.853 127.639 115.867 127.853 117.448H126.323C126.117 116.685 125.365 116.155 124.201 116.155C123.055 116.155 122.213 116.747 122.213 117.601V117.619C122.213 118.274 122.697 118.687 123.834 118.966L125.32 119.325C127.137 119.765 128.015 120.555 128.015 121.938V121.956C128.015 123.68 126.34 124.875 124.147 124.875Z" fill="#EF7519"/>
<path d="M130.038 128L130.817 122.89H132.598L131.193 128H130.038Z" fill="#EF7519"/>
<path d="M144.344 124.875C142.196 124.875 140.718 123.833 140.539 122.235H142.133C142.393 123.043 143.163 123.573 144.398 123.573C145.696 123.573 146.618 122.953 146.618 122.073V122.055C146.618 121.399 146.126 120.941 144.935 120.654L143.44 120.295C141.632 119.864 140.817 119.073 140.817 117.681V117.672C140.817 116.065 142.357 114.853 144.407 114.853C146.43 114.853 147.836 115.867 148.051 117.448H146.52C146.314 116.685 145.562 116.155 144.398 116.155C143.252 116.155 142.411 116.747 142.411 117.601V117.619C142.411 118.274 142.894 118.687 144.031 118.966L145.517 119.325C147.335 119.765 148.212 120.555 148.212 121.938V121.956C148.212 123.68 146.538 124.875 144.344 124.875Z" fill="#EF7519"/>
<path d="M153.279 124.875C151.444 124.875 150.056 123.761 150.056 122.001V121.983C150.056 120.259 151.327 119.262 153.575 119.127L156.341 118.957V118.077C156.341 116.882 155.616 116.236 154.174 116.236C153.019 116.236 152.258 116.667 152.008 117.421L151.999 117.448H150.441L150.45 117.394C150.701 115.876 152.169 114.853 154.228 114.853C156.583 114.853 157.899 116.065 157.899 118.077V124.704H156.341V123.276H156.198C155.589 124.309 154.577 124.875 153.279 124.875ZM151.65 121.965C151.65 122.944 152.482 123.519 153.601 123.519C155.186 123.519 156.341 122.477 156.341 121.094V120.214L153.763 120.376C152.294 120.465 151.65 120.986 151.65 121.947V121.965Z" fill="#EF7519"/>
<path d="M163.118 124.704L159.546 115.023H161.193L163.834 122.998H163.978L166.619 115.023H168.266L164.694 124.704H163.118Z" fill="#EF7519"/>
<path d="M173.906 124.875C171.149 124.875 169.483 122.935 169.483 119.9V119.891C169.483 116.9 171.184 114.853 173.808 114.853C176.431 114.853 178.024 116.81 178.024 119.702V120.313H171.077C171.122 122.315 172.223 123.483 173.942 123.483C175.249 123.483 176.055 122.863 176.314 122.279L176.35 122.199H177.908L177.89 122.27C177.559 123.582 176.18 124.875 173.906 124.875ZM173.799 116.245C172.366 116.245 171.274 117.223 171.104 119.064H176.44C176.279 117.152 175.222 116.245 173.799 116.245Z" fill="#EF7519"/>
<path d="M185.688 124.704V111.18H187.246V124.704H185.688Z" fill="#EF7519"/>
<path d="M191.059 113.155C190.469 113.155 189.985 112.67 189.985 112.078C189.985 111.485 190.469 111 191.059 111C191.65 111 192.134 111.485 192.134 112.078C192.134 112.67 191.65 113.155 191.059 113.155ZM190.272 124.704V115.023H191.829V124.704H190.272Z" fill="#EF7519"/>
<path d="M197.496 124.704L193.924 115.023H195.572L198.213 122.998H198.356L200.997 115.023H202.644L199.072 124.704H197.496Z" fill="#EF7519"/>
<path d="M208.284 124.875C205.527 124.875 203.862 122.935 203.862 119.9V119.891C203.862 116.9 205.563 114.853 208.186 114.853C210.809 114.853 212.403 116.81 212.403 119.702V120.313H205.455C205.5 122.315 206.601 123.483 208.32 123.483C209.627 123.483 210.433 122.863 210.693 122.279L210.729 122.199H212.286L212.268 122.27C211.937 123.582 210.558 124.875 208.284 124.875ZM208.177 116.245C206.745 116.245 205.652 117.223 205.482 119.064H210.818C210.657 117.152 209.601 116.245 208.177 116.245Z" fill="#EF7519"/>
<path d="M218.132 124.875C215.984 124.875 214.507 123.833 214.328 122.235H215.921C216.181 123.043 216.951 123.573 218.186 123.573C219.484 123.573 220.406 122.953 220.406 122.073V122.055C220.406 121.399 219.914 120.941 218.723 120.654L217.228 120.295C215.42 119.864 214.605 119.073 214.605 117.681V117.672C214.605 116.065 216.145 114.853 218.195 114.853C220.218 114.853 221.624 115.867 221.839 117.448H220.308C220.102 116.685 219.35 116.155 218.186 116.155C217.04 116.155 216.199 116.747 216.199 117.601V117.619C216.199 118.274 216.682 118.687 217.819 118.966L219.305 119.325C221.123 119.765 222 120.555 222 121.938V121.956C222 123.68 220.326 124.875 218.132 124.875Z" fill="#EF7519"/>
<rect x="0.202148" y="53.7781" width="28.3003" height="47.302" rx="4.8" fill="#352A12"/>
<path d="M57.1729 40.4469C58.0163 39.1976 59.3975 38.4169 60.9027 38.3389L74.8026 37.618C79.1209 37.3941 81.5103 42.5463 78.5498 45.6979L28.4252 99.0597C27.3624 100.191 25.7926 100.697 24.2693 100.399C21.0987 99.7777 19.5889 96.1235 21.3965 93.4458L57.1729 40.4469Z" fill="#352A12"/>
<circle cx="62.6648" cy="85.5149" r="15.5652" fill="#ED6916"/>
<path d="M96.0501 100.614C93.3058 100.614 90.8482 99.9386 88.6773 98.5869C86.5474 97.2352 84.8475 95.392 83.5778 93.0573C82.349 90.7226 81.7346 88.0602 81.7346 85.0701C81.7346 82.08 82.349 79.4176 83.5778 77.0829C84.8475 74.7482 86.5474 72.905 88.6773 71.5533C90.8482 70.2016 93.3058 69.5258 96.0501 69.5258C98.0571 69.5258 99.8594 69.9149 101.457 70.6931C103.095 71.4714 104.426 72.5568 105.45 73.9494C106.474 75.3011 107.048 76.8576 107.171 78.6189V91.5213C107.048 93.2826 106.474 94.8595 105.45 96.2522C104.467 97.6038 103.157 98.6688 101.518 99.447C99.8798 100.225 98.0571 100.614 96.0501 100.614ZM97.9547 92.1357C99.9618 92.1357 101.58 91.4803 102.808 90.1696C104.037 88.8179 104.652 87.1181 104.652 85.0701C104.652 83.6774 104.365 82.4486 103.792 81.3837C103.259 80.3187 102.481 79.4995 101.457 78.9261C100.474 78.3117 99.3269 78.0045 98.0162 78.0045C96.7054 78.0045 95.5381 78.3117 94.5141 78.9261C93.531 79.4995 92.7323 80.3187 92.1179 81.3837C91.5445 82.4486 91.2578 83.6774 91.2578 85.0701C91.2578 86.4218 91.5445 87.6301 92.1179 88.695C92.6914 89.76 93.4901 90.5997 94.5141 91.2141C95.5381 91.8285 96.685 92.1357 97.9547 92.1357ZM104.283 100V91.9514L105.696 84.7014L104.283 77.4515V70.1402H113.499V100H104.283ZM120.118 100V70.1402H129.518V100H120.118ZM124.849 66.0237C123.374 66.0237 122.145 65.5322 121.162 64.5491C120.22 63.5251 119.749 62.2963 119.749 60.8627C119.749 59.3882 120.22 58.1594 121.162 57.1763C122.145 56.1933 123.374 55.7018 124.849 55.7018C126.323 55.7018 127.532 56.1933 128.474 57.1763C129.416 58.1594 129.887 59.3882 129.887 60.8627C129.887 62.2963 129.416 63.5251 128.474 64.5491C127.532 65.5322 126.323 66.0237 124.849 66.0237ZM136.138 100V70.1402H145.538V100H136.138ZM145.538 83.5955L141.606 80.5235C142.384 77.0419 143.695 74.3386 145.538 72.4134C147.381 70.4883 149.941 69.5258 153.218 69.5258C154.652 69.5258 155.901 69.751 156.966 70.2016C158.072 70.6112 159.034 71.2666 159.854 72.1677L154.263 79.2333C153.853 78.7827 153.341 78.4346 152.727 78.1888C152.112 77.943 151.416 77.8202 150.638 77.8202C149.081 77.8202 147.832 78.3117 146.89 79.2947C145.989 80.2368 145.538 81.6704 145.538 83.5955ZM175.895 100.676C172.823 100.676 170.037 100 167.539 98.6483C165.081 97.2557 163.136 95.3715 161.702 92.9958C160.268 90.6202 159.552 87.9578 159.552 85.0086C159.552 82.0595 160.268 79.4176 161.702 77.0829C163.136 74.7482 165.081 72.905 167.539 71.5533C169.996 70.1606 172.782 69.4643 175.895 69.4643C179.008 69.4643 181.793 70.1402 184.251 71.4918C186.708 72.8435 188.654 74.7072 190.087 77.0829C191.521 79.4176 192.238 82.0595 192.238 85.0086C192.238 87.9578 191.521 90.6202 190.087 92.9958C188.654 95.3715 186.708 97.2557 184.251 98.6483C181.793 100 179.008 100.676 175.895 100.676ZM175.895 92.1357C177.246 92.1357 178.434 91.849 179.458 91.2755C180.482 90.6611 181.26 89.8214 181.793 88.7565C182.366 87.6506 182.653 86.4013 182.653 85.0086C182.653 83.616 182.366 82.4077 181.793 81.3837C181.22 80.3187 180.421 79.4995 179.397 78.9261C178.414 78.3117 177.246 78.0045 175.895 78.0045C174.584 78.0045 173.417 78.3117 172.393 78.9261C171.369 79.4995 170.57 80.3187 169.996 81.3837C169.423 82.4486 169.136 83.6774 169.136 85.0701C169.136 86.4218 169.423 87.6506 169.996 88.7565C170.57 89.8214 171.369 90.6611 172.393 91.2755C173.417 91.849 174.584 92.1357 175.895 92.1357ZM207.793 100.737C206.031 100.737 204.291 100.512 202.57 100.061C200.891 99.6109 199.314 98.976 197.839 98.1568C196.406 97.2966 195.177 96.3136 194.153 95.2077L199.498 89.801C200.481 90.8659 201.649 91.7056 203 92.32C204.352 92.8934 205.827 93.1802 207.424 93.1802C208.53 93.1802 209.37 93.0163 209.943 92.6886C210.557 92.361 210.865 91.9104 210.865 91.337C210.865 90.5997 210.496 90.0467 209.759 89.6781C209.062 89.2685 208.161 88.9203 207.055 88.6336C205.949 88.3059 204.782 87.9578 203.553 87.5891C202.324 87.2205 201.157 86.7085 200.051 86.0531C198.945 85.3978 198.044 84.4966 197.348 83.3498C196.652 82.1619 196.303 80.6669 196.303 78.8646C196.303 76.9395 196.795 75.2806 197.778 73.888C198.761 72.4544 200.154 71.328 201.956 70.5088C203.758 69.6896 205.868 69.28 208.284 69.28C210.824 69.28 213.158 69.7306 215.288 70.6317C217.459 71.4918 219.22 72.7821 220.572 74.5024L215.227 79.9091C214.285 78.8032 213.22 78.025 212.032 77.5744C210.885 77.1238 209.759 76.8986 208.653 76.8986C207.588 76.8986 206.789 77.0624 206.257 77.3901C205.724 77.6768 205.458 78.1069 205.458 78.6803C205.458 79.2947 205.806 79.7862 206.502 80.1549C207.199 80.5235 208.1 80.8512 209.206 81.1379C210.312 81.4246 211.479 81.7728 212.708 82.1824C213.937 82.592 215.104 83.145 216.21 83.8413C217.316 84.5376 218.217 85.4797 218.913 86.6675C219.61 87.8144 219.958 89.3299 219.958 91.2141C219.958 94.1222 218.852 96.4365 216.64 98.1568C214.469 99.8771 211.52 100.737 207.793 100.737Z" fill="#362B12"/>
</g>
<defs>
<clipPath id="clip0_1272_944">
<rect width="222" height="154" fill="white"/>
</clipPath>
</defs>
</svg>
