<svg width="222" height="154" viewBox="0 0 222 154" fill="none" xmlns="http://www.w3.org/2000/svg">
<g clip-path="url(#clip0_1272_945)">
<rect x="0.202148" y="53.7781" width="28.3003" height="47.302" rx="4.8" fill="#352A12"/>
<path d="M57.1729 40.4469C58.0163 39.1976 59.3975 38.4169 60.9027 38.3389L74.8026 37.618C79.1209 37.3941 81.5103 42.5463 78.5498 45.6979L28.4252 99.0597C27.3624 100.191 25.7926 100.697 24.2693 100.399C21.0987 99.7777 19.5889 96.1235 21.3965 93.4458L57.1729 40.4469Z" fill="#352A12"/>
<circle cx="62.6648" cy="85.5149" r="15.5652" fill="#ED6916"/>
<path d="M96.0501 100.614C93.3058 100.614 90.8482 99.9386 88.6773 98.5869C86.5474 97.2352 84.8475 95.392 83.5778 93.0573C82.349 90.7226 81.7346 88.0602 81.7346 85.0701C81.7346 82.08 82.349 79.4176 83.5778 77.0829C84.8475 74.7482 86.5474 72.905 88.6773 71.5533C90.8482 70.2016 93.3058 69.5258 96.0501 69.5258C98.0571 69.5258 99.8594 69.9149 101.457 70.6931C103.095 71.4714 104.426 72.5568 105.45 73.9494C106.474 75.3011 107.048 76.8576 107.171 78.6189V91.5213C107.048 93.2826 106.474 94.8595 105.45 96.2522C104.467 97.6038 103.157 98.6688 101.518 99.447C99.8798 100.225 98.0571 100.614 96.0501 100.614ZM97.9547 92.1357C99.9618 92.1357 101.58 91.4803 102.808 90.1696C104.037 88.8179 104.652 87.1181 104.652 85.0701C104.652 83.6774 104.365 82.4486 103.792 81.3837C103.259 80.3187 102.481 79.4995 101.457 78.9261C100.474 78.3117 99.3269 78.0045 98.0162 78.0045C96.7054 78.0045 95.5381 78.3117 94.5141 78.9261C93.531 79.4995 92.7323 80.3187 92.1179 81.3837C91.5445 82.4486 91.2578 83.6774 91.2578 85.0701C91.2578 86.4218 91.5445 87.6301 92.1179 88.695C92.6914 89.76 93.4901 90.5997 94.5141 91.2141C95.5381 91.8285 96.685 92.1357 97.9547 92.1357ZM104.283 100V91.9514L105.696 84.7014L104.283 77.4515V70.1402H113.499V100H104.283ZM120.118 100V70.1402H129.518V100H120.118ZM124.849 66.0237C123.374 66.0237 122.145 65.5322 121.162 64.5491C120.22 63.5251 119.749 62.2963 119.749 60.8627C119.749 59.3882 120.22 58.1594 121.162 57.1763C122.145 56.1933 123.374 55.7018 124.849 55.7018C126.323 55.7018 127.532 56.1933 128.474 57.1763C129.416 58.1594 129.887 59.3882 129.887 60.8627C129.887 62.2963 129.416 63.5251 128.474 64.5491C127.532 65.5322 126.323 66.0237 124.849 66.0237ZM136.138 100V70.1402H145.538V100H136.138ZM145.538 83.5955L141.606 80.5235C142.384 77.0419 143.695 74.3386 145.538 72.4134C147.381 70.4883 149.941 69.5258 153.218 69.5258C154.652 69.5258 155.901 69.751 156.966 70.2016C158.072 70.6112 159.034 71.2666 159.854 72.1677L154.263 79.2333C153.853 78.7827 153.341 78.4346 152.727 78.1888C152.112 77.943 151.416 77.8202 150.638 77.8202C149.081 77.8202 147.832 78.3117 146.89 79.2947C145.989 80.2368 145.538 81.6704 145.538 83.5955ZM175.895 100.676C172.823 100.676 170.037 100 167.539 98.6483C165.081 97.2557 163.136 95.3715 161.702 92.9958C160.268 90.6202 159.552 87.9578 159.552 85.0086C159.552 82.0595 160.268 79.4176 161.702 77.0829C163.136 74.7482 165.081 72.905 167.539 71.5533C169.996 70.1606 172.782 69.4643 175.895 69.4643C179.008 69.4643 181.793 70.1402 184.251 71.4918C186.708 72.8435 188.654 74.7072 190.087 77.0829C191.521 79.4176 192.238 82.0595 192.238 85.0086C192.238 87.9578 191.521 90.6202 190.087 92.9958C188.654 95.3715 186.708 97.2557 184.251 98.6483C181.793 100 179.008 100.676 175.895 100.676ZM175.895 92.1357C177.246 92.1357 178.434 91.849 179.458 91.2755C180.482 90.6611 181.26 89.8214 181.793 88.7565C182.366 87.6506 182.653 86.4013 182.653 85.0086C182.653 83.616 182.366 82.4077 181.793 81.3837C181.22 80.3187 180.421 79.4995 179.397 78.9261C178.414 78.3117 177.246 78.0045 175.895 78.0045C174.584 78.0045 173.417 78.3117 172.393 78.9261C171.369 79.4995 170.57 80.3187 169.996 81.3837C169.423 82.4486 169.136 83.6774 169.136 85.0701C169.136 86.4218 169.423 87.6506 169.996 88.7565C170.57 89.8214 171.369 90.6611 172.393 91.2755C173.417 91.849 174.584 92.1357 175.895 92.1357ZM207.793 100.737C206.031 100.737 204.291 100.512 202.57 100.061C200.891 99.6109 199.314 98.976 197.839 98.1568C196.406 97.2966 195.177 96.3136 194.153 95.2077L199.498 89.801C200.481 90.8659 201.649 91.7056 203 92.32C204.352 92.8934 205.827 93.1802 207.424 93.1802C208.53 93.1802 209.37 93.0163 209.943 92.6886C210.557 92.361 210.865 91.9104 210.865 91.337C210.865 90.5997 210.496 90.0467 209.759 89.6781C209.062 89.2685 208.161 88.9203 207.055 88.6336C205.949 88.3059 204.782 87.9578 203.553 87.5891C202.324 87.2205 201.157 86.7085 200.051 86.0531C198.945 85.3978 198.044 84.4966 197.348 83.3498C196.652 82.1619 196.303 80.6669 196.303 78.8646C196.303 76.9395 196.795 75.2806 197.778 73.888C198.761 72.4544 200.154 71.328 201.956 70.5088C203.758 69.6896 205.868 69.28 208.284 69.28C210.824 69.28 213.158 69.7306 215.288 70.6317C217.459 71.4918 219.22 72.7821 220.572 74.5024L215.227 79.9091C214.285 78.8032 213.22 78.025 212.032 77.5744C210.885 77.1238 209.759 76.8986 208.653 76.8986C207.588 76.8986 206.789 77.0624 206.257 77.3901C205.724 77.6768 205.458 78.1069 205.458 78.6803C205.458 79.2947 205.806 79.7862 206.502 80.1549C207.199 80.5235 208.1 80.8512 209.206 81.1379C210.312 81.4246 211.479 81.7728 212.708 82.1824C213.937 82.592 215.104 83.145 216.21 83.8413C217.316 84.5376 218.217 85.4797 218.913 86.6675C219.61 87.8144 219.958 89.3299 219.958 91.2141C219.958 94.1222 218.852 96.4365 216.64 98.1568C214.469 99.8771 211.52 100.737 207.793 100.737Z" fill="#362B12"/>
</g>
<defs>
<clipPath id="clip0_1272_945">
<rect width="222" height="154" fill="white"/>
</clipPath>
</defs>
</svg>
